<svg xmlns="http://www.w3.org/2000/svg" width="256" height="128" viewBox="0 0 256 128" fill="none" stroke="#fff">
	<path stroke-width="4" d="M114.455 89.72h26.91c7.929 0 8.611 0 15.414 2.743l57.696 19.816c10.808 2.897 11.721-6.733 2.468-9.212l-48.347-17.313V74.69h33.011l6.32-10.946-3.558-2.054-2.232-8.334-13.567-7.832-5.474-9.483-5.56 9.633h-63.08"/>
	<path stroke-width="6" d="M167.372 43.674c0 10.475 24.225 10.833 28.358 3.675"/>
	<path stroke-width="3" d="M134.276 31.183c9.227 6.975 19.485 11.094 33.41 14.463L150.117 32.04M97.918 47.132H65.291m44.162 23.091H81.604m22.269 18.721H91.721M65.29 80.907H47.439m4.865-24.243H30.708"/>
</svg>
