<svg xmlns="http://www.w3.org/2000/svg" width="256" height="128" viewBox="0 0 256 128" fill="none" stroke="#fff" stroke-linejoin="round" stroke-width="2.862">
	<path stroke-width="2.5" d="M100.077 113.608h4.266a4.42 4.42 0 0 1 4.429 4.429v3.071a4.42 4.42 0 0 1-4.429 4.429h-4.266a4.42 4.42 0 0 1-4.429-4.429v-3.071a4.42 4.42 0 0 1 4.429-4.429zm51.574 0h4.266a4.42 4.42 0 0 1 4.429 4.429v3.071a4.42 4.42 0 0 1-4.429 4.429h-4.266a4.42 4.42 0 0 1-4.429-4.429v-3.071a4.42 4.42 0 0 1 4.429-4.429z"/>
	<path d="M92.853 38.557h70.293a3.43 3.43 0 0 1 3.437 3.437v68.172a3.43 3.43 0 0 1-3.437 3.437H92.853a3.43 3.43 0 0 1-3.437-3.437V41.994a3.43 3.43 0 0 1 3.437-3.437z"/>
	<circle cx="102.21" cy="97.928" r="4.11"/>
	<circle cx="153.784" cy="97.928" r="4.11"/>
	<circle cx="128" cy="97.928" r="5.98"/>
	<path d="M93.114 82.248h69.772M128.26 46.384c-6.663 0-13.288-.001-13.288 9.364v21.966h26.054V55.748c0-9.365-6.102-9.364-12.765-9.364zm25.52 3.235c4.816 0 7.874 0 7.874 5.638v22.455h-15.74V55.257c0-5.638 3.031-5.638 7.867-5.638zm-51.572 0c4.813 0 7.87 0 7.87 5.638v22.455H94.34V55.257c0-5.638 3.03-5.638 7.866-5.638zm-12.736-7.084c-1.43 0-6.548-3.98 3.437-3.98m73.614 3.98c1.432 0 6.547-3.98-3.438-3.98"/>
	<path fill="#fff" stroke-miterlimit="3.7" stroke-width=".479" d="M164.317 38.053H91.683c0-1.915 10.527-3.315 14.392-3.315v-3.103h-1.426c2.689-2.688 7.46-7.23 23.353-7.23s20.482 4.53 23.183 7.229h-1.437v3.105c4.036 0 14.568 1.56 14.568 3.314z"/>
	<path d="M82.036 45.803a8.699 8.699 0 0 1-.181-8.584 8.699 8.699 0 0 1 7.272-4.56"/>
	<path stroke-width="3.578" d="M74.561 50.255a17.397 17.397 0 0 1-.364-17.165 17.397 17.397 0 0 1 14.547-9.12"/>
	<path stroke-width="4.585" d="M66.014 56.372a27.873 27.873 0 0 1-.583-27.502A27.873 27.873 0 0 1 88.74 14.258"/>
</svg>
