<svg xmlns="http://www.w3.org/2000/svg" width="256" height="128" viewBox="0 0 256 128" fill="none" stroke="#fff" stroke-width="3">
	<circle cx="127.9963" cy="63.9963" r="61.5001" stroke-width="5"/>
	<path id="star" stroke-width="4" d="m159.0318 21.0887-31.0315 95.4888L96.969 21.0887l81.2335 59.0174-100.4062-.0066 81.227-59.017-31.0229 95.495"/>
	<path id="skull" d="M127.9963 29.6083c-12.4524 0-24.642 7.6696-27.1251 25.1447-.7228 9.3479 1.5097 22.1434 4.7499 29.5247l7.9782 4.0476 2.3592 7.2534h24.0746l2.4217-7.2534 7.9632-4.0476c2.8339-9.146 6.7533-21.278 4.5731-31.0227-1.6582-12.6538-14.6693-23.6467-26.9948-23.6467z"/>
	<ellipse id="left" cx="115.3164" cy="68.5936" rx="8.9454" ry="7.2555"/>
	<ellipse id="right" cx="141.1752" cy="68.5936" rx="8.9454" ry="7.2555"/>
</svg>
