<svg xmlns="http://www.w3.org/2000/svg" width="256" height="128" viewBox="0 0 256 128">
	<g fill="none" stroke="#fff" stroke-width="2.327" transform="translate(-26.559 -36.445) scale(.85937)">
		<rect width="8.505" height="8.505" x="135.458" y="68.094" transform="rotate(31.02)"/>
		<path id="tri" d="m65.846 137.512-1.864-11.306 10.723 4.04z"/>
		<ellipse cx="72.258" cy="144.789" rx="5.434" ry="5.492"/>
		<path id="rays" stroke-width="1.986" d="m95.945 136.074-1.437-34.84m-29.548 15.83 29.302-16.146"/>
		<circle id="snatch" cx="74.405" cy="136.444" r="20.572" stroke-width="3.966"/>
		<path fill="#fff" stroke="none" d="m80.227 74.859 51.245 11.123c1.59.397 2.781 1.26 3.575 2.582.794 1.324.994 2.715.596 4.17l-1.192 5.562 3.179.595.993-4.37c.263-.924.86-1.256 1.787-.992l94.148 20.458c1.191.266 2.084.694 2.681 1.29a31.44 31.44 0 0 1 1.887 2.086l41.711 9.137c1.192-1.323 2.846-1.788 4.966-1.392l17.678 3.973c1.588.267 2.78 1.028 3.574 2.285.795 1.26.994 2.68.596 4.27l-2.78 12.91c-.267 1.459-.994 2.582-2.186 3.377-1.191.795-2.65.993-4.37.596l-17.677-3.774c-1.062-.263-2.02-.86-2.88-1.788-.864-.924-1.36-2.051-1.49-3.376l-40.123-8.74c-1.458 2.384-3.709 3.246-6.752 2.582l-94.148-20.457c-1.062-.264-1.459-.86-1.192-1.789l.993-4.37-3.178-.595-1.192 5.561c-.267 1.459-1.062 2.616-2.384 3.476-1.325.863-2.716 1.093-4.17.696L72.875 108.82c-1.458-.263-2.516-1.058-3.178-2.383a6.46 6.46 0 0 1-.595-4.172l5.163-23.04c.264-1.456.96-2.613 2.086-3.476 1.126-.857 2.416-1.155 3.875-.891zm-6.554 30.588 51.244 11.123c.528.134 1.06.035 1.589-.298.528-.328.86-.695.993-1.092l.2-.397-55.815-12.315v.397c-.133.531 0 1.028.398 1.49.397.465.86.828 1.39 1.092zm-.596-8.144-.795 3.575 55.814 12.117.794-3.575zm56.806 7.35L74.071 92.535l-.596 2.98 55.614 12.116zm.397-2.185.795-3.179-55.813-12.115-.596 3.178zm1.788-8.342L76.453 82.01l-.794 3.376 55.813 12.315zm-1.39-4.768L79.433 78.235c-.397-.13-.862-.1-1.39.1-.532.198-.928.695-1.192 1.49v.396l55.614 12.116.2-.397c.13-1.455-.532-2.314-1.987-2.582zm6.952 24.828c.398.134 2.018.497 4.867 1.093 2.846.595 6.455 1.39 10.825 2.383 4.37.993 9.335 2.12 14.896 3.377 5.562 1.26 11.188 2.483 16.883 3.675 13.374 2.914 28.404 6.158 45.088 9.732.662.134 1.323.035 1.986-.297.662-.329 1.06-.76 1.193-1.29l2.78-12.911c.263-1.59-.466-2.514-2.184-2.782-.665 0-1.391-.13-2.186-.397a28.663 28.663 0 0 1-2.383-.596 58.042 58.042 0 0 0-3.179-.794l-.794 4.569 1.39.397c.264 0 .528.198.795.596.264.397.33.794.199 1.19-.266 1.063-.794 1.46-1.59 1.193l-5.163-.993c-.795-.397-1.127-1.059-.993-1.986.263-.924.794-1.322 1.588-1.193l1.589.398.993-4.567a125.947 125.947 0 0 1-4.867-.993c-1.786-.398-3.742-.86-5.859-1.392l-.993 4.568 1.589.398c.397 0 .694.199.894.595.198.398.23.795.099 1.193-.267 1.062-.863 1.458-1.788 1.191l-4.966-.993c-.927-.263-1.26-.925-.993-1.986.264-.925.795-1.322 1.589-1.192l1.589.398.993-4.569a8182.162 8182.162 0 0 0-21.849-4.766c-7.944-1.72-15.427-3.343-22.444-4.866a6747.289 6747.289 0 0 1-17.777-3.874c-4.835-1.059-7.517-1.655-8.044-1.788-.133.665-.366 1.788-.695 3.377-.332 1.589-.696 3.311-1.092 5.165a220.564 220.564 0 0 1-1.193 5.263c-.396 1.656-.663 2.813-.793 3.474zm99.312 17.28 40.122 8.74 1.192-6.158-40.123-8.739zm1.589-7.746 32.773 7.151.595-2.582-32.773-7.151zm40.718 6.158-4.966-1.192-.595 2.582 4.965 1.192zm.398 13.109c-.134.531-.036 1.062.297 1.589.329.53.76.862 1.29.993l17.678 3.774c.794.266 1.456.198 1.987-.199.527-.397.86-.86.993-1.39l2.98-12.713c.13-1.588-.597-2.581-2.186-2.98l-17.677-3.773c-1.326-.263-2.186.333-2.582 1.787z"/>
	</g>
</svg>
